# xmcd
#
# Track frame offsets:
#	150
#	12270
#	23070
#	45765
#	77490
#	92258
#	100891
#	120316
#	134941
#	148576
#	166141
#	189286
#	205839
#	217749
#
# Disc length: 3064 seconds
#
# Revision: 1
# Processed by: cddbd v1.5.2PL0 Copyright (c) Steve Scherf et al.
# Submitted via: audiograbber 1.83.01
#
DISCID=a40bf60e
DTITLE=B.B.King - 2018 The Many Faces CD2
DYEAR=2018
DGENRE=Blues
TTITLE0=The King Of Blues
TTITLE1=Recession Blues
TTITLE2=Everyday I Have The Blues
TTITLE3=All Over Again
TTITLE4=B.B.'s Boogie
TTITLE5=A New Way Of Driving
TTITLE6=Sweet Sixteen
TTITLE7=Mr Pawnbroker
TTITLE8=Please Love Me
TTITLE9=That Evil Child
TTITLE10=Sweet Little Angel
TTITLE11=My Guitar Sings The Blues
TTITLE12=Help The Poor
TTITLE13=Payin'The Cost To Be The Boss 
EXTD=
EXTT0=
EXTT1=
EXTT2=
EXTT3=
EXTT4=
EXTT5=
EXTT6=
EXTT7=
EXTT8=
EXTT9=
EXTT10=
EXTT11=
EXTT12=
EXTT13=
PLAYORDER=
